# xmcd
#
# Track frame offsets:
#	150
#	16637
#	29330
#	42960
#	54726
#	70172
#	87330
#	102829
#	118299
#	136720
#	152501
#	168200
#
# Disc length: 2480 seconds
# Revision: 0
# Processed by: cddbd v1.5.2PL0 Copyright (c) Steve Scherf et al.
# Submitted via: dBpowerAMP V12.0
#
DISCID=9009ae0c
DTITLE=Ed Bruce - Sing About Jesus
DYEAR=2007
DGENRE=Religious
TTITLE0=Sing About Jesus
TTITLE1=You
TTITLE2=He Lives
TTITLE3=Devil Ain't Got A Prayer
TTITLE4=I Pray
TTITLE5=I Know
TTITLE6=Stand By Me
TTITLE7=Rise
TTITLE8=One Spirit
TTITLE9=What Have We Done
TTITLE10=Tender His Mercy
TTITLE11=Thank You For The Son
EXTD=
EXTT0=
EXTT1=
EXTT2=
EXTT3=
EXTT4=
EXTT5=
EXTT6=
EXTT7=
EXTT8=
EXTT9=
EXTT10=
EXTT11=
PLAYORDER=
